<svg id="Layer_1" data-name="Layer 1" xmlns="http://www.w3.org/2000/svg" viewBox="0 0 530.6 200.16"><defs><style>.cls-1{fill:#fff;}.cls-2{fill:none;stroke:#231f20;stroke-miterlimit:10;stroke-width:0.25px;}.cls-3{fill:#231f20;}</style></defs><title>logo hugo svg</title><path class="cls-1" d="M71.59,99.58l11.34-6.75v94.11l-11.34-6.53Zm7.06,35.63h44.86V146H78.65Zm38.86-62.34,11.34-6.55V213.45l-11.34-6.55Z" transform="translate(-55.85 -38.88)"/><path class="cls-1" d="M211.91,136.88V151c0,6,.75,24.37-3.52,29.52-2.69,3.24-5.68,5.09-10,7.59s-9,5.17-15,8.71c-4.94,2.92-10.37,4.79-15.13,3.46-4.38-1.21-7.24-3.35-10.1-8.26-2.47-4.24-3.59-33.57-3.59-39.24V128.93c0-6,1.18-35.47,3.53-40s5.12-7.55,10-9.07c5-1.57,9.93.13,15,3.13,4,2.39,9,5.23,12.89,7.21s7.36,6.11,9.88,9.82c3,4.49,5.11,18,6,22.77H201.72c-.67-2.71-.72-12.77-5.8-18.1a45.64,45.64,0,0,0-6.11-5,48.52,48.52,0,0,0-6.71-4.45c-2.95-1.59-5.72-3.83-9.28-4s-4.37,2-5.44,6c-.83,3.08-2.07,27.91-2.07,31.73v23.85c0,3.48.71,29.58,2.13,32.19s3,4.53,6,3,5.56-2.61,9-4.55c2.92-1.66,6.31-3.89,8.84-5.39a14.65,14.65,0,0,0,5.88-6.43c1.38-2.86,2.07-16.43,2.07-20.36v-3.5H183.71V136.88Z" transform="translate(-55.85 -38.88)"/><polygon class="cls-1" points="171.63 51.49 171.63 150.51 89.63 197.85 89.63 188.84 163.84 146.02 163.84 56 89.63 13.16 89.63 4.16 171.63 51.49"/><polygon class="cls-1" points="89.63 188.84 89.63 197.85 85.88 200.02 82.19 197.88 82.19 188.88 85.88 191.01 89.63 188.84"/><polygon class="cls-1" points="89.63 13.16 89.63 188.84 85.88 191.01 82.19 188.88 82.19 13.12 85.88 10.99 89.63 13.16"/><polygon class="cls-1" points="82.19 13.12 7.92 56 7.92 146.02 82.19 188.88 82.19 197.88 0.13 150.51 0.13 51.49 85.88 1.99 89.63 4.16 89.63 13.16 85.88 10.99 82.19 13.12"/><polygon class="cls-2" points="82.19 13.12 7.92 56 7.92 146.02 82.19 188.88 85.88 191.01 89.63 188.84 163.84 146.02 163.84 56 89.63 13.16 85.88 10.99 82.19 13.12"/><polygon class="cls-2" points="89.63 4.16 85.88 1.99 0.13 51.49 0.13 150.51 82.19 197.88 85.88 200.02 89.63 197.85 171.63 150.51 171.63 51.49 89.63 4.16"/><path class="cls-3" d="M430.43,97.73,441.77,91v94.11l-11.34-6.53Zm7.06,35.63h44.86v10.79H437.49ZM476.35,71l11.34-6.55V211.6l-11.34-6.55Z" transform="translate(-55.85 -38.88)"/><path class="cls-3" d="M570.75,135v14.12c0,6,.75,24.38-3.52,29.52-2.69,3.25-5.68,5.09-10,7.59s-9,5.17-15,8.72c-4.94,2.91-10.37,4.78-15.14,3.45-4.37-1.21-7.23-3.34-10.1-8.26-2.46-4.23-3.58-33.57-3.58-39.24V127.08c0-6,1.18-35.47,3.53-40S522.1,79.5,527,78s9.93.13,15,3.13c4,2.39,9,5.23,12.9,7.21s7.36,6.12,9.88,9.82c3,4.49,5.11,18,6,22.77H560.56c-.67-2.71-.72-12.77-5.81-18.1a45.56,45.56,0,0,0-6.1-5,48.12,48.12,0,0,0-6.72-4.45c-2.94-1.59-5.71-3.83-9.27-4s-4.38,2.05-5.44,6c-.83,3.08-2.07,27.91-2.07,31.73v23.85c0,3.48.71,29.58,2.12,32.19s3,4.54,6,3,5.56-2.61,9-4.55c2.91-1.66,6.3-3.89,8.84-5.39a14.65,14.65,0,0,0,5.88-6.43c1.38-2.86,2.07-16.43,2.07-20.36v-3.5H542.55V135Z" transform="translate(-55.85 -38.88)"/><polygon class="cls-3" points="530.48 49.65 530.48 148.67 448.46 196.02 448.46 187.02 522.68 144.16 522.68 54.14 448.46 11.3 448.46 2.3 530.48 49.65"/><polygon class="cls-3" points="448.46 187.02 448.46 196.02 444.73 198.18 441.01 196.04 441.01 187.04 444.73 189.17 448.46 187.02"/><polygon class="cls-3" points="448.46 11.3 448.46 187.02 444.73 189.17 441.01 187.04 441.01 11.28 444.73 9.15 448.46 11.3"/><polygon class="cls-3" points="448.46 2.3 448.46 11.3 444.73 9.15 441.01 11.28 441.01 3.84 440.34 2.67 444.73 0.14 448.46 2.3"/><polygon class="cls-3" points="441.01 187.04 441.01 196.04 358.97 148.67 358.97 49.65 440.34 2.67 441.01 3.84 441.01 11.28 366.77 54.14 366.77 144.16 441.01 187.04"/><polygon class="cls-2" points="441.01 11.28 366.77 54.14 366.77 144.16 441.01 187.04 444.73 189.17 448.46 187.02 522.68 144.16 522.68 54.14 448.46 11.3 444.73 9.15 441.01 11.28"/><polygon class="cls-2" points="440.34 2.67 358.97 49.65 358.97 148.67 441.01 196.04 444.73 198.18 448.46 196.02 530.48 148.67 530.48 49.65 448.46 2.3 444.73 0.14 440.34 2.67"/></svg>